gait_23_test.mot
version=1
nRows=24
nColumns=19
inDegrees=yes
endheader
time	ground_force_vx	ground_force_vy	ground_force_vz	ground_force_px	ground_force_py	ground_force_pz	1_ground_force_vx	1_ground_force_vy	1_ground_force_vz	1_ground_force_px	1_ground_force_py	1_ground_force_pz	ground_torque_x	ground_torque_y	ground_torque_z	1_ground_torque_x	1_ground_torque_y	1_ground_torque_z
      2.39600000	      0.00000000	      0.00000000	      0.00000000	      0.00000000	      0.00000000	      0.00000000	     93.65161251	    656.14643615	     -9.31473132	      0.30654160	      0.00000000	     -0.11808170	      0.00000000	      0.00000000	      0.00000000	      0.00000000	      0.94117002	      0.00000000
      2.39700000	      0.00000000	      0.00000000	      0.00000000	      0.00000000	      0.00000000	      0.00000000	     94.31751603	    655.51105437	     -9.19808015	      0.30667412	      0.00000000	     -0.11811917	      0.00000000	      0.00000000	      0.00000000	      0.00000000	      0.93852360	      0.00000000
      2.39800000	      0.00000000	      0.00000000	      0.00000000	      0.00000000	      0.00000000	      0.00000000	     94.98115251	    654.83407636	     -9.08221998	      0.30680724	      0.00000000	     -0.11815629	      0.00000000	      0.00000000	      0.00000000	      0.00000000	      0.93520150	      0.00000000
      2.39900000	      0.00000000	      0.00000000	      0.00000000	      0.00000000	      0.00000000	      0.00000000	     95.64257443	    654.11540341	     -8.96708357	      0.30694093	      0.00000000	     -0.11819307	      0.00000000	      0.00000000	      0.00000000	      0.00000000	      0.93119838	      0.00000000
      2.40000000	      0.00000000	      0.00000000	      0.00000000	      0.00000000	      0.00000000	      0.00000000	     96.30182360	    653.35491371	     -8.85259166	      0.30707520	      0.00000000	     -0.11822950	      0.00000000	      0.00000000	      0.00000000	      0.00000000	      0.92651034	      0.00000000
      2.40100000	      0.00000000	      0.00000000	      0.00000000	      0.00000000	      0.00000000	      0.00000000	     96.95893010	    652.55246071	     -8.73865305	      0.30721001	      0.00000000	     -0.11826556	      0.00000000	      0.00000000	      0.00000000	      0.00000000	      0.92113487	      0.00000000
      2.40200000	      0.00000000	      0.00000000	      0.00000000	      0.00000000	      0.00000000	      0.00000000	     97.61391139	    651.70787156	     -8.62516470	      0.30734537	      0.00000000	     -0.11830125	      0.00000000	      0.00000000	      0.00000000	      0.00000000	      0.91507090	      0.00000000
      2.40300000	      0.00000000	      0.00000000	      0.00000000	      0.00000000	      0.00000000	      0.00000000	     98.26677131	    650.82094560	     -8.51201192	      0.30748126	      0.00000000	     -0.11833657	      0.00000000	      0.00000000	      0.00000000	      0.00000000	      0.90831874	      0.00000000
      2.40400000	      0.00000000	      0.00000000	      0.00000000	      0.00000000	      0.00000000	      0.00000000	     98.91749911	    649.89145296	     -8.39906855	      0.30761768	      0.00000000	     -0.11837151	      0.00000000	      0.00000000	      0.00000000	      0.00000000	      0.90088016	      0.00000000
      2.40500000	      0.00000000	      0.00000000	      0.00000000	      0.00000000	      0.00000000	      0.00000000	     99.56606856	    648.91913320	     -8.28619719	      0.30775461	      0.00000000	     -0.11840606	      0.00000000	      0.00000000	      0.00000000	      0.00000000	      0.89275836	      0.00000000
      2.40600000	      0.00000000	      0.00000000	      0.00000000	      0.00000000	      0.00000000	      0.00000000	    100.21243699	    647.90369397	     -8.17324948	      0.30789205	      0.00000000	     -0.11844024	      0.00000000	      0.00000000	      0.00000000	      0.00000000	      0.88395797	      0.00000000
      2.40700000	      0.00000000	      0.00000000	      0.00000000	      0.00000000	      0.00000000	      0.00000000	    100.85654438	    646.84480982	     -8.06006643	      0.30803000	      0.00000000	     -0.11847404	      0.00000000	      0.00000000	      0.00000000	      0.00000000	      0.87448506	      0.00000000
      2.40800000	      0.00000000	      0.00000000	      0.00000000	      0.00000000	      0.00000000	      0.00000000	    101.49831246	    645.74212106	     -7.94647879	      0.30816845	      0.00000000	     -0.11850746	      0.00000000	      0.00000000	      0.00000000	      0.00000000	      0.86434715	      0.00000000
      2.40900000	      0.00000000	      0.00000000	      0.00000000	      0.00000000	      0.00000000	      0.00000000	    102.13764376	    644.59523276	     -7.83230744	      0.30830739	      0.00000000	     -0.11854052	      0.00000000	      0.00000000	      0.00000000	      0.00000000	      0.85355321	      0.00000000
      2.41000000	      0.00000000	      0.00000000	      0.00000000	      0.00000000	      0.00000000	      0.00000000	    102.77442079	    643.40371376	     -7.71736385	      0.30844684	      0.00000000	     -0.11857321	      0.00000000	      0.00000000	      0.00000000	      0.00000000	      0.84211365	      0.00000000
      2.41100000	      0.00000000	      0.00000000	      0.00000000	      0.00000000	      0.00000000	      0.00000000	    103.40850507	    642.16709585	     -7.60145063	      0.30858678	      0.00000000	     -0.11860556	      0.00000000	      0.00000000	      0.00000000	      0.00000000	      0.83004033	      0.00000000
      2.41200000	      0.00000000	      0.00000000	      0.00000000	      0.00000000	      0.00000000	      0.00000000	    104.03973635	    640.88487300	     -7.48436208	      0.30872723	      0.00000000	     -0.11863758	      0.00000000	      0.00000000	      0.00000000	      0.00000000	      0.81734654	      0.00000000
      2.41300000	      0.00000000	      0.00000000	      0.00000000	      0.00000000	      0.00000000	      0.00000000	    104.66793178	    639.55650070	     -7.36588483	      0.30886817	      0.00000000	     -0.11866928	      0.00000000	      0.00000000	      0.00000000	      0.00000000	      0.80404701	      0.00000000
      2.41400000	      0.00000000	      0.00000000	      0.00000000	      0.00000000	      0.00000000	      0.00000000	    105.29288516	    638.18139536	     -7.24579856	      0.30900962	      0.00000000	     -0.11870068	      0.00000000	      0.00000000	      0.00000000	      0.00000000	      0.79015785	      0.00000000
      2.41500000	      0.00000000	      0.00000000	      0.00000000	      0.00000000	      0.00000000	      0.00000000	    105.91436626	    636.75893389	     -7.12387675	      0.30915158	      0.00000000	     -0.11873180	      0.00000000	      0.00000000	      0.00000000	      0.00000000	      0.77569658	      0.00000000
      2.41600000	      0.00000000	      0.00000000	      0.00000000	      0.00000000	      0.00000000	      0.00000000	    106.53212017	    635.28845336	     -6.99988748	      0.30929406	      0.00000000	     -0.11876267	      0.00000000	      0.00000000	      0.00000000	      0.00000000	      0.76068202	      0.00000000
      2.41700000	      0.00000000	      0.00000000	      0.00000000	      0.00000000	      0.00000000	      0.00000000	    107.14586675	    633.76925073	     -6.87359437	      0.30943706	      0.00000000	     -0.11879331	      0.00000000	      0.00000000	      0.00000000	      0.00000000	      0.74513431	      0.00000000
      2.41800000	      0.00000000	      0.00000000	      0.00000000	      0.00000000	      0.00000000	      0.00000000	    107.75530010	    632.20058268	     -6.74475746	      0.30958059	      0.00000000	     -0.11882375	      0.00000000	      0.00000000	      0.00000000	      0.00000000	      0.72907483	      0.00000000
      2.41900000	      0.00000000	      0.00000000	      0.00000000	      0.00000000	      0.00000000	      0.00000000	    108.36008816	    630.58166552	     -6.61313421	      0.30972465	      0.00000000	     -0.11885402	      0.00000000	      0.00000000	      0.00000000	      0.00000000	      0.71252614	      0.00000000
